<svg width="25" height="25" viewBox="0 0 50 35" fill="none" xmlns="http://www.w3.org/2000/svg">
<g clip-path="url(#clip0_30_42)">
<path d="M49.9762 17.8274C49.9762 16.3935 49.8061 15.3471 49.4379 14.262H25.498V20.734H39.5502C39.267 22.3424 37.7371 24.7646 34.3373 26.3923L34.2896 26.6089L41.859 30.6197L42.3834 30.6555C47.1996 27.6131 49.9762 23.1369 49.9762 17.8274Z" fill="#4285F4"/>
<path d="M25.498 34.8798C32.3824 34.8798 38.1619 33.3295 42.3834 30.6555L34.3373 26.3923C32.1842 27.4193 29.2943 28.1363 25.498 28.1363C18.7553 28.1363 13.0324 25.0941 10.9924 20.8891L10.6934 20.9065L2.82266 25.0727L2.71973 25.2684C6.9127 30.9654 15.5254 34.8798 25.498 34.8798Z" fill="#34A853"/>
<path d="M10.9924 20.8891C10.4541 19.804 10.1426 18.6412 10.1426 17.4399C10.1426 16.2384 10.4541 15.0758 10.9641 13.9906L10.9498 13.7595L2.98047 9.5264L2.71973 9.61123C0.991602 11.9753 0 14.6301 0 17.4399C0 20.2496 0.991602 22.9043 2.71973 25.2684L10.9924 20.8891Z" fill="#FBBC05"/>
<path d="M25.498 6.74338C30.2859 6.74338 33.5156 8.15794 35.3572 9.34006L42.5533 4.53437C38.1338 1.72462 32.3824 0 25.498 0C15.5254 0 6.9127 3.91426 2.71973 9.61124L10.9641 13.9907C13.0324 9.78571 18.7553 6.74338 25.498 6.74338Z" fill="#EB4335"/>
</g>
<defs>
<clipPath id="clip0_30_42">
<rect width="50" height="35" fill="white"/>
</clipPath>
</defs>
</svg>
